<svg width="156" height="30" viewBox="0 0 156 28.6" xmlns="http://www.w3.org/2000/svg" xmlns:xlink="http://www.w3.org/1999/xlink"><svg viewBox="323.3 243.8 156 28.6" width="156" height="28.6"><path fill="#EC1C24" d="M334.4 258.4c-1 0-1.5-.8-1.8-1.5-.3-.7-.2-1.3-.9-1.3s-2.4 2.1-2.7 4.9c0 .3-.1 2.2-.1 3.2v3c0 1.1-.1 2.5.1 3.3.2 1.1.5 1.2 1.3 1.6.3.1.4.2.6.2v.1h-7.6v-.1c.2 0 .3-.1.6-.2.9-.4 1.1-.5 1.3-1.6.2-.8.1-2.2.1-3.3v-10.4c-.1-.8-.3-1-.7-1.3-.4-.3-.8-.3-1.1-.4v-.1h5.1c.2 0 .2.1.2.2v4.6c.5-2 1.5-3.3 2.1-3.9.6-.6 1.6-1.3 2.9-1.3.6 0 1.3.2 1.8.7.3.3.6.9.6 1.7.1 1-.5 1.9-1.8 1.9zm16.1 3.4h-10.7c0 4.8.6 7.2 1.8 8.6.9 1.1 1.8 1.3 3 1.3 3.3 0 5-2.7 5.7-5.5h.2c-.7 3.5-3 5.9-6.5 5.9-2 0-4.2-.5-5.7-2.1-1.6-1.8-2.2-3.9-2.2-6.8 0-5.5 3.1-9.1 7.5-9.1 5 0 7.2 3.4 7.2 6.6-.2.3-.2.7-.3 1.1zm-4.8-6.7c-.7-.7-1.3-.9-2.3-.9-.9 0-1.5.2-2.1.9-.9 1-1.4 3.2-1.5 6.4h5.9c1.2 0 1.3 0 1.3-1.8-.1-2.4-.7-4-1.3-4.6zm17 17c-1 0-1.8 0-2.2-.3-.5-.3-.9-1.1-.8-2.6-.4 1.4-1.8 2.9-4.4 2.9-2.4 0-4.5-1.4-4.5-4.3 0-1.1.3-2 1-2.6 1.3-1.2 3-1.3 4.7-2 2.3-.9 3.4-2 3.4-3.2v-3.1c0-2.2-.6-2.6-2.3-2.6-.9 0-1.4.2-1.8.6-.4.4-.6 1.3-.6 2.5 0 1.3-.7 1.8-1.8 1.8-.9 0-1.6-.5-1.6-1.5 0-.7.2-1.2.7-1.7.9-1.1 3.4-1.8 5.1-1.8 3 0 5.9 1.1 5.9 4 0 1.3-.1 7.8-.1 10.2 0 1.8 0 2.4.4 2.8.2.2.5.4.9.4s.7-.1 1.1-.3v.1c-.5.3-1.8.7-3.1.7zm-5.6-8.9c-1.1.6-1.6 1-2 1.6-.4.7-.7 1.8-.7 2.9 0 2.3.9 3.6 2.5 3.6.3 0 .7 0 1-.2.9-.4 1.7-1.8 1.7-3.1v-6.8c-.5.9-1.4 1.4-2.5 2zm8.2 8.5c.2-.1.5-.2.7-.3.7-.3 1-.5 1.2-1.6.2-.8.2-2.1.2-3.3v-17.7c0-.7 0-2.6-.1-3.3-.1-.8-.3-1.1-.7-1.3-.4-.3-.8-.3-1.1-.4h5.1c.2 0 .2 0 .2.3v22.6c0 1.1 0 2.4.1 3.3.2 1.1.5 1.3 1.4 1.6.2.1.3.1.5.2v.1h-7.5v-.2z"/><path fill="#231F20" d="M383.8 269.5c-.6 1.3-2.4 2.6-4.2 2.6-1.6 0-2.6-.2-3.5-1.1-.7-.7-1.1-1.5-1.1-3 0-.8.1-11.4.2-13.4-.6 0-1.8 0-2.4-.1v-.1c2.5-.6 4.1-1.9 5.8-7.4h.1v7.3h4v.2h-4l-.2 14.6c0 1.5.4 2.4 2.1 2.4 1.4 0 2.5-1.1 3-2.1l.2.1zm6.9 2.6c-4 0-8.3-3.5-8.3-9s4.3-9 8.3-9 8.4 3.4 8.4 9c0 5.5-4.3 9-8.4 9zm2.7-16.7c-.8-1-1.8-1.2-2.7-1.2s-1.9.3-2.6 1.1c-1.2 1.3-1.9 4.6-1.9 7.7 0 3.2.7 6.3 1.9 7.7.8 1 1.8 1.2 2.7 1.2s1.8-.2 2.7-1.2c1.1-1.3 1.9-4.5 1.9-7.7-.1-3.1-.8-6.2-2-7.6zm16.1 3c-1 0-1.5-.8-1.8-1.5-.3-.7-.2-1.3-.9-1.3s-2.4 2.1-2.7 4.9c0 .3-.1 2.2-.1 3.2v3c0 1.1-.1 2.5.1 3.3.2 1.1.5 1.2 1.3 1.6.3.1.4.2.6.2v.1h-7.5v-.1c.2 0 .3-.1.6-.2.9-.4 1.1-.5 1.3-1.6.2-.8.1-2.2.1-3.3v-10.4c-.1-.8-.3-1-.7-1.3s-.8-.3-1.1-.4v-.1h5.1c.2 0 .2.1.2.2v4.6c.5-2 1.5-3.3 2.1-3.9.6-.6 1.6-1.3 2.9-1.3.6 0 1.3.2 1.8.7.3.3.6.9.6 1.7 0 1-.6 1.9-1.9 1.9zm1.9 14c-1.2 0-2.2-.9-2.2-2.2s1-2.2 2.2-2.2c1.2 0 2.2.8 2.2 2.2-.1 1.3-1 2.2-2.2 2.2zm11.5-.3c-2.2 0-4.2-.9-5.5-2.2-1.7-1.7-2.3-4.1-2.3-7 0-5.5 4.2-8.8 7.9-8.8 2.5 0 4.4.9 5.1 1.8.6.7.9 1.3.9 1.9 0 1.3-.9 1.8-1.7 1.8-1.4 0-1.9-.9-2-2.2-.3-2.3-.7-3.1-2.4-3.1-.7 0-1.8.3-2.4 1-.9 1.1-1.4 3.7-1.4 6.9 0 4 .5 6.6 1.5 8.1.8 1.1 1.8 1.4 2.7 1.4 3.7 0 5.3-3.2 5.9-5.6h.2c-1 3.4-3.1 6-6.5 6zm14.6 0c-4 0-8.3-3.5-8.3-9s4.3-9 8.3-9 8.4 3.4 8.4 9c0 5.5-4.4 9-8.4 9zm2.7-16.7c-.8-1-1.8-1.2-2.7-1.2-.9 0-1.9.3-2.6 1.1-1.2 1.3-1.9 4.6-1.9 7.7 0 3.2.7 6.3 1.9 7.7.8 1 1.8 1.2 2.7 1.2.9 0 1.8-.2 2.7-1.2 1.1-1.3 1.9-4.5 1.9-7.7-.2-3.1-.9-6.2-2-7.6zm25.7 16.3c.2-.1.3-.2.6-.3.8-.3 1.1-.5 1.3-1.6.2-.8.2-2.1.2-3.3v-7.1c0-1.9-.2-2.8-.6-3.4-.5-.7-1.2-1.1-2.2-1.1-1.8 0-3.9 1.6-4.2 4.7 0 .6-.1 1.3-.1 2.1v4.7c0 1.1-.1 2.4.1 3.3.2 1.1.5 1.3 1.3 1.6.3.1.4.2.6.2v.1h-7.6v-.1c.2 0 .3-.1.6-.2.8-.3 1.1-.5 1.3-1.6.2-.8.2-2.1.2-3.3v-7.1c0-1.9-.2-2.8-.7-3.4-.5-.7-1.2-1.1-2.2-1.1-2 0-3.9 1.7-4.2 4.8-.1 1-.1 2.2-.1 3.4v3.3c0 1.1-.1 2.5.1 3.3.2 1.1.5 1.2 1.4 1.6l.6.2v.1h-7.6v-.1c.2 0 .3-.1.6-.2.9-.3 1.1-.5 1.3-1.6.2-.8.2-2.2.2-3.3v-7c0-.7 0-2.7-.1-3.3-.1-.8-.3-1-.7-1.3s-.8-.3-1.1-.4v-.1h5.1c.2 0 .2 0 .2.2l-.1 4c.5-1.8 1.4-2.8 2.3-3.5.7-.5 2-1.1 3.4-1.1 1.8 0 3.1.5 3.8 1.4.4.5 1.1 1.6 1.1 3.3.5-1.9 1.5-3 2.4-3.6.9-.7 2.3-1.1 3.3-1.1 2.2 0 3.3.7 3.9 1.5.5.6 1 1.7 1 3.8v7.2c0 1.1 0 2.4.2 3.3.2 1.1.5 1.3 1.3 1.6l.6.2v.1h-7.5v.2zm10.4-14c-.4 0-.8-.1-1.2-.2-.4-.2-.7-.4-.9-.6-.3-.3-.5-.6-.6-.9-.2-.4-.2-.7-.2-1.2 0-.4.1-.8.2-1.2.2-.4.4-.7.6-1 .3-.3.6-.5 1-.6.4-.2.8-.2 1.2-.2s.8.1 1.2.2c.4.2.7.4.9.6.3.3.5.6.6.9.2.4.2.7.2 1.2 0 .4-.1.8-.2 1.2-.2.4-.4.7-.6 1s-.6.5-1 .6c-.4.2-.8.2-1.2.2zm0-.3c.4 0 .7-.1 1.1-.2.3-.1.6-.3.8-.6.2-.2.4-.5.6-.8.1-.3.2-.7.2-1 0-.4-.1-.7-.2-1-.1-.3-.3-.6-.6-.8-.2-.2-.5-.4-.8-.6-.3-.1-.7-.2-1-.2-.4 0-.7.1-1.1.2-.3.1-.6.3-.8.6-.2.2-.4.5-.6.8-.1.3-.2.7-.2 1 0 .4.1.7.2 1s.3.6.6.8c.2.2.5.4.8.6.3.1.7.2 1 .2zm-1.2-4.4h1.4c.4 0 .8.1 1 .3.2.2.3.4.3.7 0 .3-.1.5-.2.6-.1.2-.3.3-.5.4l.8 1.1h-.8l-.7-1h-.5v1h-.7V253h-.1zm1.4 1.5c.2 0 .3 0 .4-.1s.1-.2.1-.3c0-.2 0-.3-.1-.3-.1-.1-.2-.1-.4-.1h-.7v.9h.7v-.1z"/></svg></svg>